#!OML:ASF E:\Steps\Project 1\Capture day 1\Session 2\Subject.ASF
:FULLY-SPECIFIED
:DEGREES
162
root -0.263149 17.964 19.9677 -157.514 -2.43846 182.545
lowerback -23.025 -3.5009 -7.77805
upperback 1.12407 -2.70217 0.289049
thorax 14.706 -1.91045 3.81357
lowerneck 2.0426 -7.84256 -2.30366
upperneck 19.6001 -9.75757 3.40226
head 5.88629 -4.13818 1.06026
rclavicle 9.54166e-015 3.10104e-014
rhumerus -44.2511 -21.2841 -74.2567
rradius 30.3845
rwrist 8.40457
rhand -11.6296 -56.8957
rfingers 7.12502
rthumb 14.4139 -86.3752
lclavicle 9.54166e-015 3.10104e-014
lhumerus -29.792 7.24831 75.2898
lradius 23.7843
lwrist -1.1779
lhand -25.0102 -11.5931
lfingers 7.12502
lthumb 1.50172 18.3813
rfemur -34.45 2.20133 5.71677
rtibia 12.1591
rfoot -12.1019 -10.5618
rtoes -33.9375
lfemur -19.731 -10.8095 -14.4346
ltibia 15.4389
lfoot -16.0911 5.39086
ltoes -28.2647
163
root -0.222364 17.9568 19.9334 -157.469 -2.51275 182.591
lowerback -22.7685 -3.44115 -7.58881
upperback 0.97078 -2.70661 0.246484
thorax 14.3611 -1.88564 3.66585
lowerneck 1.74156 -7.80008 -2.14194
upperneck 19.9963 -9.6727 3.311
head 6.04699 -4.06639 0.995558
rclavicle 9.54166e-015 -7.95139e-016
rhumerus -44.5129 -21.214 -74.3693
rradius 30.6514
rwrist 8.25241
rhand -11.0182 -57.0948
rfingers 7.12502
rthumb 15.0029 -86.5313
lclavicle 9.54166e-015 -7.95139e-016
lhumerus -29.9888 6.94289 75.208
lradius 23.9099
lwrist -0.779181
lhand -25.2604 -11.4851
lfingers 7.12502
lthumb 1.26006 18.4909
rfemur -34.2818 2.53269 5.74108
rtibia 11.8444
rfoot -11.8038 -10.6685
rtoes -34.7156
lfemur -19.7756 -10.8442 -14.1924
ltibia 15.6859
lfoot -16.235 5.50776
ltoes -29.3311
164
root -0.179727 17.9506 19.8955 -157.499 -2.54732 182.545
lowerback -23.0387 -3.48043 -7.66167
upperback 1.15681 -2.70339 0.306437
thorax 14.748 -1.90331 3.76605
lowerneck 1.61107 -7.81784 -2.21737
upperneck 19.8471 -9.73052 3.376
head 6.03041 -4.10926 1.02008
rclavicle 1.51076e-014 -1.66979e-014
rhumerus -44.2496 -21.2048 -74.4695
rradius 30.8746
rwrist 8.30082
rhand -12.2245 -56.0487
rfingers 7.12502
rthumb 13.8407 -85.5682
lclavicle 1.51076e-014 -1.66979e-014
lhumerus -29.7172 6.91307 75.3952
lradius 23.9898
lwrist -0.342463
lhand -25.62 -11.557
lfingers 7.12502
lthumb 0.912799 18.4208
rfemur -34.0572 2.92153 5.63228
rtibia 11.6919
rfoot -12.0889 -10.5434
rtoes -34.5695
lfemur -19.5798 -10.9561 -14.0645
ltibia 15.6479
lfoot -16.2884 5.6513
ltoes -29.9484
165
root -0.135183 17.9448 19.8604 -157.462 -2.6137 182.434
lowerback -23.2285 -3.50568 -7.62206
upperback 1.47061 -2.69164 0.245332
thorax 15.2308 -1.90509 3.66471
lowerneck 0.601814 -7.77679 -2.16598
upperneck 19.7844 -9.79194 3.53943
head 6.18823 -4.1456 1.01732
rclavicle -1.27222e-014 2.3059e-014
rhumerus -43.4786 -21.1583 -75.0693
rradius 31.0262
rwrist 8.00377
rhand -10.989 -58.2275
rfingers 7.12502
rthumb 15.0311 -87.6619
lclavicle -1.27222e-014 2.3059e-014
lhumerus -28.8773 7.06229 75.4307
lradius 23.8269
lwrist -0.105997
lhand -25.6697 -11.5045
lfingers 7.12502
lthumb 0.864766 18.4735
rfemur -33.936 2.98646 5.57456
rtibia 11.6488
rfoot -12.2573 -10.2494
rtoes -34.5159
lfemur -19.4809 -11.0109 -13.9907
ltibia 15.6033
lfoot -16.4725 5.70082
ltoes -30.5323
166
root -0.0919414 17.9353 19.822 -157.379 -2.74058 182.345
lowerback -22.9692 -3.55956 -7.67806
upperback 1.19536 -2.80574 0.310765
thorax 14.7696 -1.95102 3.7444
lowerneck 0.739998 -7.794 -2.12492
upperneck 20.0324 -9.7298 3.21348
head 6.22365 -4.11638 0.916545
rclavicle 6.16232e-015 2.38542e-015
rhumerus -43.8559 -20.6233 -75.0656
rradius 31.2263
rwrist 7.87692
rhand -10.3419 -58.73
rfingers 7.12502
rthumb 15.6544 -88.1166
lclavicle 6.16232e-015 2.38542e-015
lhumerus -29.3394 7.12547 75.4251
lradius 23.8827
lwrist -0.0288914
lhand -25.5849 -11.6142
lfingers 7.12502
lthumb 0.94662 18.3635
rfemur -33.8582 2.9336 5.61995
rtibia 11.5685
rfoot -11.9239 -10.1261
rtoes -35.699
lfemur -19.5668 -11.0193 -13.9099
ltibia 15.8371
lfoot -16.7828 5.77263
ltoes -31.6506
167
root -0.0478785 17.9272 19.7807 -157.41 -2.89803 182.275
lowerback -23.2384 -3.60096 -7.63888
upperback 1.34889 -2.83249 0.301209
thorax 15.1121 -1.96905 3.68912
lowerneck 0.592239 -7.78371 -1.98277
upperneck 20.1029 -9.70177 3.06564
head 6.25559 -4.10052 0.842741
rclavicle 3.37934e-015 -5.56597e-015
rhumerus -43.6377 -20.6494 -75.1967
rradius 31.4646
rwrist 8.17674
rhand -9.99435 -59.2235
rfingers 7.12502
rthumb 15.9891 -88.5837
lclavicle 3.37934e-015 -5.56597e-015
lhumerus -29.1105 7.31525 75.3657
lradius 23.8697
lwrist 0.0127545
lhand -25.2986 -11.8385
lfingers 7.12502
lthumb 1.2232 18.1378
rfemur -33.4933 2.92276 5.70932
rtibia 11.2502
rfoot -10.858 -9.87414
rtoes -35.6637
lfemur -19.5266 -11.1328 -13.8213
ltibia 16.161
lfoot -16.9451 5.89793
ltoes -32.7478
168
root -0.001244 17.9207 19.7417 -157.403 -2.98958 182.201
lowerback -23.4563 -3.61137 -7.60185
upperback 1.37783 -2.83263 0.267729
thorax 15.2693 -1.96918 3.62096
lowerneck 1.19311 -7.78705 -2.00666
upperneck 19.6122 -9.73762 3.31207
head 6.01208 -4.1237 0.950922
rclavicle -1.15295e-014 -3.18055e-014
rhumerus -43.6538 -20.6011 -75.32
rradius 31.7718
rwrist 7.87038
rhand -10.5957 -59.3726
rfingers 7.12502
rthumb 15.4099 -88.7782
lclavicle -1.15295e-014 -3.18055e-014
lhumerus -29.0774 7.42484 75.2827
lradius 23.8001
lwrist -0.00224744
lhand -25.3715 -11.8165
lfingers 7.12502
lthumb 1.15281 18.1602
rfemur -33.1912 3.08551 5.7273
rtibia 11.0065
rfoot -10.2045 -9.41307
rtoes -34.4367
lfemur -19.3829 -11.3491 -13.7017
ltibia 16.2189
lfoot -17.0756 5.96124
ltoes -31.8681
169
root 0.0461235 17.9103 19.7002 -157.253 -2.98138 182.06
lowerback -22.9685 -3.60537 -7.67215
upperback 0.772974 -2.91229 0.263239
thorax 14.272 -1.98514 3.65535
lowerneck 2.1658 -7.84392 -2.09497
upperneck 19.6245 -9.72475 3.30051
head 5.85651 -4.10346 1.00314
rclavicle 1.59028e-015 3.18055e-015
rhumerus -44.735 -20.1353 -75.0565
rradius 32.1217
rwrist 7.38242
rhand -11.0662 -57.5979
rfingers 7.12502
rthumb 14.9567 -87.0378
lclavicle 1.59028e-015 3.18055e-015
lhumerus -30.2506 7.22862 75.1462
lradius 23.9704
lwrist -0.0313877
lhand -25.5971 -11.9124
lfingers 7.12502
lthumb 0.934841 18.0653
rfemur -33.2521 3.33464 5.63519
rtibia 11.1807
rfoot -9.79613 -9.06807
rtoes -33.3071
lfemur -19.2644 -11.4751 -13.6523
ltibia 15.9984
lfoot -17.2101 5.97202
ltoes -30.5738
170
root 0.0953203 17.8984 19.6572 -157.125 -2.9502 181.888
lowerback -23.4894 -3.67382 -7.73759
upperback 0.903241 -2.92226 0.187984
thorax 14.728 -2.00522 3.58029
lowerneck 2.3286 -7.71305 -2.11008
upperneck 19.2972 -9.59845 3.5624
head 5.73482 -4.04322 1.10281
rclavicle -3.24019e-014 -7.95139e-016
rhumerus -44.4512 -20.0951 -75.3142
rradius 32.2605
rwrist 7.27374
rhand -10.7681 -57.0509
rfingers 7.12502
rthumb 15.2438 -86.4693
lclavicle -3.24019e-014 -7.95139e-016
lhumerus -30.0997 7.29526 75.0659
lradius 24.0181
lwrist -0.111254
lhand -25.3244 -11.9321
lfingers 7.12502
lthumb 1.19826 18.0442
rfemur -33.323 3.37376 5.63762
rtibia 11.4329
rfoot -9.41087 -8.48077
rtoes -32.1247
lfemur -19.072 -11.6162 -13.6496
ltibia 15.6805
lfoot -17.167 6.20265
ltoes -31.6014
171
root 0.146969 17.8906 19.6183 -157.042 -2.95663 181.802
lowerback -23.6842 -3.71308 -7.80902
upperback 0.997961 -2.93288 0.233879
thorax 14.9633 -2.02411 3.66151
lowerneck 2.08847 -7.65675 -2.19946
upperneck 19.2439 -9.55863 3.67108
head 5.76636 -4.03034 1.14323
rclavicle 3.83654e-014 -7.95139e-016
rhumerus -44.0785 -19.9494 -75.4986
rradius 32.4498
rwrist 7.20128
rhand -10.6392 -59.5861
rfingers 7.12502
rthumb 15.3681 -88.9949
lclavicle 3.83654e-014 -7.95139e-016
lhumerus -29.8904 7.29797 75.2461
lradius 24.0682
lwrist -0.0626051
lhand -25.1652 -11.6407
lfingers 7.12502
lthumb 1.35201 18.3347
rfemur -33.2977 3.41095 5.80063
rtibia 11.4914
rfoot -8.0111 -7.63071
rtoes -32.2438
lfemur -18.9055 -11.8095 -13.5197
ltibia 15.4713
lfoot -17.0973 6.42014
ltoes -32.012
172
root 0.199678 17.8867 19.5809 -157.025 -3.0564 181.754
lowerback -23.7718 -3.7169 -7.74394
upperback 1.31618 -2.91369 0.250898
thorax 15.3956 -2.02112 3.64191
lowerneck 0.671903 -7.67568 -2.06409
upperneck 19.7344 -9.64621 3.56087
head 6.1512 -4.06183 1.02051
rclavicle -6.16232e-015 -5.56597e-015
rhumerus -43.2071 -20.1022 -75.8404
rradius 32.6117
rwrist 7.16835
rhand -10.9793 -57.8083
rfingers 7.12502
rthumb 15.0404 -87.242
lclavicle -6.16232e-015 -5.56597e-015
lhumerus -29.1396 7.22007 75.4877
lradius 24.0242
lwrist 0.282776
lhand -25.4215 -11.5672
lfingers 7.12502
lthumb 1.10444 18.4097
rfemur -33.1239 3.67427 5.94814
rtibia 11.4067
rfoot -8.87362 -7.20044
rtoes -29.8602
lfemur -18.807 -11.8605 -13.3263
ltibia 15.459
lfoot -16.9704 6.38893
ltoes -32.2704
173
root 0.253362 17.8769 19.5371 -156.969 -3.14431 181.735
lowerback -23.9084 -3.75912 -7.66801
upperback 1.30884 -2.98661 0.295271
thorax 15.4738 -2.05171 3.61819
lowerneck 0.714802 -7.61186 -2.16149
upperneck 19.8181 -9.54563 3.58931
head 6.17355 -4.01087 1.05197
rclavicle 1.07344e-014 4.77083e-015
rhumerus -43.1302 -19.8083 -76.0001
rradius 32.8951
rwrist 6.87404
rhand -11.4044 -57.3934
rfingers 7.12502
rthumb 14.6309 -86.8572
lclavicle 1.07344e-014 4.77083e-015
lhumerus -29.1089 7.46542 75.4608
lradius 23.876
lwrist 0.217261
lhand -25.5514 -11.7061
lfingers 7.12502
lthumb 0.979026 18.2714
rfemur -33.0731 3.97488 6.10432
rtibia 11.5236
rfoot -9.41452 -7.1717
rtoes -28.0271
lfemur -18.744 -11.9423 -13.0919
ltibia 15.4792
lfoot -16.8779 6.53921
ltoes -33.7108
174
root 0.309055 17.8697 19.4924 -157.039 -3.22003 181.665
lowerback -23.5601 -3.76705 -7.59516
upperback 1.13198 -3.06337 0.285127
thorax 15.0621 -2.0684 3.55219
lowerneck 0.774304 -7.52191 -2.20893
upperneck 20.0367 -9.38541 3.55183
head 6.22839 -3.921 1.05844
rclavicle -9.14409e-015 2.38542e-015
rhumerus -43.45 -19.4767 -76.108
rradius 33.2958
rwrist 6.63374
rhand -11.4254 -57.2301
rfingers 7.12502
rthumb 14.6107 -86.6955
lclavicle -9.14409e-015 2.38542e-015
lhumerus -29.4493 7.57481 75.3509
lradius 23.8414
lwrist 0.0572787
lhand -25.4435 -11.839
lfingers 7.12502
lthumb 1.08319 18.138
rfemur -32.9178 3.99771 6.39022
rtibia 11.7317
rfoot -8.59728 -7.16499
rtoes -31.6941
lfemur -18.4705 -12.2275 -12.9542
ltibia 15.4488
lfoot -17.0025 6.84151
ltoes -34.7315
175
root 0.364256 17.8624 19.4512 -157.02 -3.21323 181.59
lowerback -23.8134 -3.75871 -7.52087
upperback 1.2331 -3.03617 0.231018
thorax 15.3194 -2.05432 3.44535
lowerneck 0.901561 -7.39302 -2.00589
upperneck 19.7864 -9.20973 3.45989
head 6.10655 -3.84027 1.0144
rclavicle 1.55052e-014 -1.66979e-014
rhumerus -43.2809 -19.4789 -76.3505
rradius 33.6339
rwrist 6.61519
rhand -11.4348 -56.9992
rfingers 7.12502
rthumb 14.6016 -86.4652
lclavicle 1.55052e-014 -1.66979e-014
lhumerus -29.3176 7.35493 75.4358
lradius 23.8868
lwrist 0.330827
lhand -25.4849 -11.5878
lfingers 7.12502
lthumb 1.04321 18.3894
rfemur -32.8507 3.8013 6.75927
rtibia 11.8606
rfoot -10.3794 -7.25657
rtoes -26.8749
lfemur -18.3032 -12.3795 -12.8373
ltibia 15.4356
lfoot -17.0709 7.15244
ltoes -36.1359
